#define link_width 16
#define link_height 16
static char link_bits[] = {
   0x00, 0x00, 0x3e, 0x7c, 0x1e, 0x78, 0x0e, 0x70, 0x1e, 0x78, 0x32, 0x4c,
   0x60, 0x06, 0xc0, 0x03, 0xc0, 0x01, 0x60, 0x03, 0x32, 0x46, 0x1e, 0x6c,
   0x0e, 0x78, 0x1e, 0x78, 0x3e, 0x7c, 0x00, 0x00};
